<svg xmlns="http://www.w3.org/2000/svg" viewBox="0 0 512 512" role="img" aria-labelledby="title">
  <title>Boston Time Logo</title>
  <defs>
    <linearGradient id="paper" x1="0" y1="0" x2="0" y2="1">
      <stop offset="0%" stop-color="#f4ead8" />
      <stop offset="100%" stop-color="#d8c2a0" />
    </linearGradient>
    <radialGradient id="vignette" cx="50%" cy="50%" r="60%">
      <stop offset="72%" stop-color="rgba(0,0,0,0)" />
      <stop offset="100%" stop-color="rgba(0,0,0,0.14)" />
    </radialGradient>
  </defs>

  <rect width="512" height="512" rx="90" fill="url(#paper)" />
  <circle cx="256" cy="256" r="220" fill="#5f3b23" />
  <circle cx="256" cy="256" r="202" fill="#fbf3e5" />
  <circle cx="256" cy="256" r="189" fill="none" stroke="#c99152" stroke-width="12" />
  <circle cx="256" cy="256" r="176" fill="none" stroke="#5f3b23" stroke-width="8" />

  <g fill="#2f2217">
    <rect x="194" y="258" width="14" height="44" rx="2" />
    <rect x="214" y="236" width="14" height="66" rx="2" />
    <rect x="234" y="248" width="14" height="54" rx="2" />
    <rect x="254" y="224" width="14" height="78" rx="2" />
    <rect x="274" y="242" width="14" height="60" rx="2" />
    <rect x="294" y="232" width="14" height="70" rx="2" />
    <rect x="314" y="252" width="14" height="50" rx="2" />
  </g>

  <path d="M126 350c46-20 86 20 130 0s84 20 130 0" fill="none" stroke="#a64a2e" stroke-width="10" stroke-linecap="round" />
  <path d="M126 370c46-20 86 20 130 0s84 20 130 0" fill="none" stroke="#a64a2e" stroke-width="9" stroke-linecap="round" />

  <g fill="none" stroke-linecap="round" stroke-linejoin="round">
    <path d="M168 152v118" stroke="#5f3b23" stroke-width="16" />
    <path d="M168 152h70v59h-70" stroke="#5f3b23" stroke-width="16" />
    <path d="M168 211h66v59h-66" stroke="#5f3b23" stroke-width="16" />
    <path d="M276 152h102" stroke="#a64a2e" stroke-width="16" />
    <path d="M327 152v118" stroke="#a64a2e" stroke-width="16" />
  </g>

  <rect width="512" height="512" rx="90" fill="url(#vignette)" />
</svg>
